<?xml version="1.0" encoding="UTF-8"?>
<svg id="Layer_2" data-name="Layer 2" xmlns="http://www.w3.org/2000/svg" viewBox="0 0 32 20.94">
  <defs>
    <style>
      .cls-1 {
        fill: #4c67ff;
      }
    </style>
  </defs>
  <g id="Layer_1-2" data-name="Layer 1">
    <g id="favicon">
      <path class="cls-1" d="M8.49,7.59l-2.12-3.89c-.39-.71-1.37-.78-1.86-.14L.23,9.16c-.27.35-.3.82-.09,1.21l5.44,10c.19.36.57.58.98.58h7.33c.84,0,1.38-.9.98-1.64l-6.37-11.7Z"/>
      <path class="cls-1" d="M31.86,19.3l-.3-.55-6.08-11.15h0l-1.2-2.19-2.62-4.82c-.19-.36-.57-.58-.98-.58h-6.33c-.35,0-.67.16-.88.44l-4.1,5.37c-.56.73-.04,1.79.88,1.79h4.7c.41,0,.78.22.98.58l5.76,10.57.88,1.61c.19.36.57.58.98.58h7.33c.84,0,1.38-.9.98-1.64Z"/>
    </g>
  </g>
</svg>